<svg width="24" height="24" viewBox="0 0 24 24" fill="none" xmlns="http://www.w3.org/2000/svg">
<path d="M8.05 12.82H7.95C7.34 12.82 6.85 12.33 6.85 11.72C6.85 11.11 7.34 10.62 7.95 10.62H8.05C8.66 10.62 9.15 11.11 9.15 11.72C9.15 12.33 8.66 12.82 8.05 12.82Z" fill="black"/>
<path d="M12.05 12.82H11.95C11.34 12.82 10.85 12.33 10.85 11.72C10.85 11.11 11.34 10.62 11.95 10.62H12.05C12.66 10.62 13.15 11.11 13.15 11.72C13.15 12.33 12.66 12.82 12.05 12.82Z" fill="black"/>
<path d="M16.05 12.82H15.95C15.34 12.82 14.85 12.33 14.85 11.72C14.85 11.11 15.34 10.62 15.95 10.62H16.05C16.66 10.62 17.15 11.11 17.15 11.72C17.15 12.33 16.66 12.82 16.05 12.82Z" fill="black"/>
<path d="M2 22L3.15 16.66C2.4 15.23 2 13.63 2 12C2 6.49 6.49 2 12 2C17.51 2 22 6.49 22 12C22 17.51 17.51 22 12 22C10.3 22 8.64 21.57 7.17 20.75L2 22ZM7.38 19.15L7.65 19.31C8.96 20.09 10.46 20.5 12 20.5C16.69 20.5 20.5 16.69 20.5 12C20.5 7.31 16.69 3.5 12 3.5C7.31 3.5 3.5 7.31 3.5 12C3.5 13.46 3.88 14.91 4.6 16.18L4.74 16.43L4.01 19.92L7.39 19.15H7.38Z" fill="black"/>
</svg>
